<svg width="61" height="566" viewBox="0 0 61 566" fill="none" xmlns="http://www.w3.org/2000/svg">
    <path fill-rule="evenodd" clip-rule="evenodd"
          d="M31.5034 95V92.8444C31.5034 90.3814 32.0124 88.0106 32.9476 85.7955C33.9164 83.5066 35.3398 81.3838 37.1379 79.4966C37.2283 79.3572 37.3316 79.2199 37.4479 79.0847C37.5745 78.9413 37.7088 78.8019 37.8612 78.6687C38.0886 78.4679 38.3314 78.263 38.582 78.0561C38.83 77.8512 39.0806 77.6524 39.3312 77.4577C41.5891 75.5992 44.2526 74.0542 47.2054 72.9087C50.073 71.7961 53.2222 71.0625 56.5445 70.79L57.0172 70.7408L57.5055 70.6957C57.583 70.6916 57.6605 70.6732 57.7303 70.6465C57.8026 70.6199 57.8698 70.583 57.9266 70.54C57.9809 70.4949 58.0274 70.4437 58.0635 70.3843C58.0971 70.3289 58.1204 70.2675 58.1281 70.2039C58.1359 70.1302 58.1281 70.0585 58.1023 69.9908C58.0739 69.9212 58.0299 69.8556 57.9757 69.8003C57.9318 69.7593 57.8801 69.7224 57.8207 69.6896C57.7742 69.665 57.7199 69.6425 57.6657 69.6281C53.9301 69.4396 50.396 68.6712 47.2029 67.4336C43.8987 66.1529 40.9587 64.3681 38.5407 62.2063C38.3004 62.0096 38.0756 61.817 37.8612 61.6264L37.5125 61.2576L37.1921 60.9031C35.7893 59.4401 34.6113 57.8356 33.6968 56.1185C32.8029 54.4403 32.1622 52.6576 31.8135 50.8011C31.7024 50.2458 31.6171 49.6966 31.5629 49.1536C31.5086 48.6106 31.4776 48.0574 31.4776 47.5C31.4776 46.9426 31.5086 46.3914 31.5629 45.8464C31.6171 45.3034 31.7024 44.7542 31.8135 44.201C32.1622 42.3445 32.8029 40.5597 33.6968 38.8815C34.6113 37.1664 35.7893 35.5599 37.1921 34.0969L37.5125 33.7424L37.8612 33.3736C38.0756 33.185 38.303 32.9924 38.5407 32.7937C40.9587 30.6319 43.8987 28.8471 47.2029 27.5664C50.396 26.3288 53.9301 25.5604 57.6657 25.3719C57.7199 25.3575 57.7742 25.335 57.8207 25.3104C57.8801 25.2776 57.9318 25.2407 57.9757 25.2018C58.0299 25.1444 58.0739 25.0809 58.1023 25.0112C58.1281 24.9436 58.1359 24.8698 58.1281 24.7961C58.1204 24.7325 58.0971 24.6711 58.0635 24.6157C58.0274 24.5563 57.9809 24.5051 57.9266 24.4621C57.8698 24.417 57.8026 24.3801 57.7328 24.3535C57.6605 24.3268 57.583 24.3104 57.5055 24.3043L57.0172 24.2612L56.5445 24.2121C53.2222 23.9375 50.073 23.2039 47.2054 22.0913C44.2526 20.9479 41.5891 19.4008 39.3312 17.5423C39.0806 17.3497 38.83 17.1489 38.582 16.946C38.3314 16.737 38.0886 16.5321 37.8612 16.3313C37.7088 16.1981 37.5745 16.0587 37.4479 15.9173C37.3316 15.7821 37.2283 15.6428 37.1379 15.5055C35.3398 13.6183 33.9164 11.4954 32.9476 9.20452C32.0124 6.98945 31.5034 4.61865 31.5034 2.15564V0H28.1683V2.15564C28.1683 4.61865 27.6593 6.98945 26.7241 9.20452C25.7553 11.4954 24.3293 13.6183 22.5338 15.5055C22.4434 15.6448 22.3375 15.7821 22.2212 15.9173C22.0972 16.0587 21.9603 16.1981 21.8105 16.3313C21.5805 16.5321 21.3403 16.737 21.0897 16.946C20.8417 17.1489 20.5911 17.3497 20.3405 17.5423C18.08 19.4008 15.4191 20.9479 12.4663 22.0913C9.59609 23.2039 6.44691 23.9375 3.12722 24.2121L2.65446 24.2612L2.16619 24.3043C2.0861 24.3104 2.0086 24.3268 1.93885 24.3535C1.86651 24.3801 1.79935 24.417 1.7451 24.4621C1.69085 24.5051 1.64176 24.5563 1.60817 24.6157C1.57459 24.6711 1.55134 24.7325 1.54359 24.7961C1.53325 24.8698 1.54359 24.9436 1.56942 25.0112C1.59526 25.0809 1.63917 25.1444 1.69601 25.2018C1.73734 25.2407 1.79159 25.2776 1.85101 25.3104C1.89751 25.335 1.95177 25.3575 2.00602 25.3719C5.74164 25.5604 9.27575 26.3288 12.4663 27.5664C15.773 28.8471 18.713 30.6319 21.131 32.7937C21.3687 32.9924 21.596 33.185 21.8105 33.3736L22.1592 33.7424L22.4796 34.0969C23.8798 35.5599 25.0604 37.1664 25.9724 38.8815C26.8662 40.5597 27.5069 42.3445 27.8582 44.201C27.9693 44.7542 28.052 45.3034 28.1088 45.8464C28.1631 46.3914 28.1915 46.9426 28.1941 47.5C28.1915 48.0574 28.1631 48.6106 28.1088 49.1536C28.052 49.6966 27.9693 50.2458 27.8582 50.8011C27.5069 52.6576 26.8662 54.4403 25.9724 56.1185C25.0604 57.8356 23.8798 59.4401 22.4796 60.9031L22.1592 61.2576L21.8105 61.6264C21.596 61.815 21.3687 62.0096 21.131 62.2063C18.713 64.3681 15.773 66.1529 12.4663 67.4336C9.27575 68.6712 5.74164 69.4396 2.00602 69.6281C1.95177 69.6425 1.89751 69.665 1.85101 69.6896C1.79159 69.7224 1.73734 69.7593 1.69601 69.8003C1.63917 69.8556 1.59525 69.9212 1.56942 69.9908C1.54359 70.0585 1.53325 70.1302 1.54359 70.2039C1.55134 70.2675 1.57459 70.3289 1.60817 70.3843C1.64175 70.4437 1.69084 70.4949 1.74509 70.54C1.79935 70.583 1.86651 70.6199 1.93885 70.6465C2.0086 70.6732 2.0861 70.6916 2.16619 70.6957L2.65445 70.7408L3.12722 70.79C6.44691 71.0625 9.59609 71.7961 12.4663 72.9087C15.4191 74.0542 18.08 75.5992 20.3405 77.4577C20.5911 77.6524 20.8417 77.8512 21.0897 78.0561C21.3403 78.263 21.5805 78.4679 21.8105 78.6687C21.9603 78.8019 22.0972 78.9413 22.2212 79.0847C22.3375 79.2179 22.4434 79.3572 22.5338 79.4966C24.3293 81.3838 25.7553 83.5066 26.7241 85.7955C27.6593 88.0106 28.1683 90.3814 28.1683 92.8444V95L28.1683 97.1783C28.1683 99.6673 27.6593 102.063 26.7241 104.301C25.7553 106.616 24.3293 108.762 22.5338 110.669C22.4434 110.809 22.3375 110.948 22.2212 111.085C22.0972 111.228 21.9603 111.369 21.8105 111.503C21.5805 111.706 21.3403 111.913 21.0897 112.124C20.8417 112.329 20.5911 112.532 20.3405 112.727C18.08 114.605 15.4191 116.168 12.4663 117.324C9.59609 118.448 6.44691 119.189 3.12722 119.467L2.65446 119.517L2.16619 119.56C2.0861 119.566 2.0086 119.583 1.93885 119.61C1.86651 119.637 1.79935 119.674 1.7451 119.72C1.69085 119.763 1.64176 119.815 1.60817 119.875C1.57459 119.931 1.55134 119.993 1.54359 120.057C1.53325 120.132 1.54359 120.206 1.56942 120.274C1.59526 120.345 1.63917 120.409 1.69601 120.467C1.73734 120.506 1.79159 120.544 1.85101 120.577C1.89751 120.602 1.95177 120.624 2.00602 120.639C5.74164 120.829 9.27575 121.606 12.4663 122.857C15.773 124.151 18.713 125.954 21.131 128.139C21.3687 128.34 21.596 128.534 21.8105 128.725L22.1592 129.098L22.4796 129.456C23.8798 130.934 25.0604 132.558 25.9724 134.291C26.8662 135.987 27.5069 137.79 27.8582 139.666C27.9693 140.225 28.052 140.78 28.1088 141.329C28.1631 141.88 28.1915 142.437 28.1941 143C28.1915 143.563 28.1631 144.122 28.1088 144.671C28.052 145.22 27.9693 145.775 27.8582 146.336C27.5069 148.212 26.8662 150.013 25.9724 151.709C25.0604 153.444 23.8798 155.066 22.4796 156.544L22.1592 156.902L21.8105 157.275C21.596 157.466 21.3687 157.662 21.131 157.861C18.713 160.046 15.773 161.849 12.4663 163.143C9.27575 164.394 5.74164 165.171 2.00602 165.361C1.95177 165.376 1.89751 165.398 1.85101 165.423C1.79159 165.456 1.73734 165.494 1.69601 165.535C1.63917 165.591 1.59525 165.657 1.56942 165.728C1.54359 165.796 1.53325 165.868 1.54359 165.943C1.55134 166.007 1.57459 166.069 1.60817 166.125C1.64175 166.185 1.69084 166.237 1.74509 166.283C1.79935 166.326 1.86651 166.363 1.93885 166.39C2.0086 166.417 2.0861 166.436 2.16619 166.44L2.65445 166.485L3.12722 166.535C6.44691 166.811 9.59609 167.552 12.4663 168.676C15.4191 169.834 18.08 171.395 20.3405 173.273C20.5911 173.47 20.8417 173.671 21.0897 173.878C21.3403 174.087 21.5805 174.294 21.8105 174.497C21.9603 174.631 22.0972 174.772 22.2212 174.917C22.3375 175.052 22.4434 175.193 22.5338 175.333C24.3293 177.24 25.7553 179.386 26.7241 181.699C27.4903 183.532 27.9704 185.472 28.1189 187.482C27.9704 189.471 27.4903 191.39 26.7241 193.205C25.7553 195.495 24.3293 197.618 22.5338 199.505C22.4434 199.645 22.3375 199.782 22.2212 199.917C22.0972 200.059 21.9603 200.198 21.8105 200.331C21.5805 200.532 21.3403 200.737 21.0897 200.946C20.8417 201.149 20.5911 201.35 20.3405 201.542C18.08 203.401 15.4191 204.948 12.4663 206.091C9.59609 207.204 6.44691 207.937 3.12722 208.212L2.65446 208.261L2.16619 208.304C2.0861 208.31 2.0086 208.327 1.93885 208.353C1.86651 208.38 1.79935 208.417 1.7451 208.462C1.69085 208.505 1.64176 208.556 1.60817 208.616C1.57459 208.671 1.55134 208.733 1.54359 208.796C1.53325 208.87 1.54359 208.944 1.56942 209.011C1.59526 209.081 1.63917 209.144 1.69601 209.202C1.73734 209.241 1.79159 209.278 1.85101 209.31C1.89751 209.335 1.95177 209.358 2.00602 209.372C5.74164 209.56 9.27575 210.329 12.4663 211.566C15.773 212.847 18.713 214.632 21.131 216.794C21.3687 216.992 21.596 217.185 21.8105 217.374L22.1592 217.742L22.4796 218.097C23.8798 219.56 25.0604 221.166 25.9724 222.882C26.8662 224.56 27.5069 226.344 27.8582 228.201C27.9693 228.754 28.052 229.303 28.1088 229.846C28.1631 230.391 28.1915 230.943 28.1941 231.5C28.1915 232.057 28.1631 232.611 28.1088 233.154C28.052 233.697 27.9693 234.246 27.8582 234.801C27.5069 236.658 26.8662 238.44 25.9724 240.118C25.0604 241.836 23.8798 243.44 22.4796 244.903L22.1592 245.258L21.8105 245.626C21.596 245.815 21.3687 246.01 21.131 246.206C18.713 248.368 15.773 250.153 12.4663 251.434C9.27575 252.671 5.74164 253.44 2.00602 253.628C1.95177 253.642 1.89751 253.665 1.85101 253.69C1.79159 253.722 1.73734 253.759 1.69601 253.8C1.63917 253.856 1.59525 253.921 1.56942 253.991C1.54359 254.058 1.53325 254.13 1.54359 254.204C1.55134 254.267 1.57459 254.329 1.60817 254.384C1.64175 254.444 1.69084 254.495 1.74509 254.54C1.79935 254.583 1.86651 254.62 1.93885 254.647C2.0086 254.673 2.0861 254.692 2.16619 254.696L2.65445 254.741L3.12722 254.79C6.44691 255.063 9.59609 255.796 12.4663 256.909C15.4191 258.054 18.08 259.599 20.3405 261.458C20.5911 261.652 20.8417 261.851 21.0897 262.056C21.3403 262.263 21.5805 262.468 21.8105 262.669C21.9603 262.802 22.0972 262.941 22.2212 263.085C22.3375 263.218 22.4434 263.357 22.5338 263.497C24.3293 265.384 25.7553 267.507 26.7241 269.795C27.6593 272.011 28.1683 274.381 28.1683 276.844L28.1683 279V281.201C28.1683 283.716 27.6593 286.137 26.7241 288.398C25.7553 290.737 24.3293 292.905 22.5338 294.832C22.4434 294.974 22.3375 295.114 22.2212 295.252C22.0972 295.397 21.9603 295.539 21.8105 295.675C21.5805 295.88 21.3403 296.089 21.0897 296.303C20.8417 296.51 20.5911 296.715 20.3405 296.912C18.08 298.809 15.4191 300.389 12.4663 301.556C9.59609 302.692 6.44691 303.441 3.12722 303.722L2.65446 303.772L2.16619 303.816C2.0861 303.822 2.0086 303.839 1.93885 303.866C1.86651 303.893 1.79935 303.931 1.7451 303.977C1.69085 304.021 1.64176 304.073 1.60817 304.134C1.57459 304.19 1.55134 304.253 1.54359 304.318C1.53325 304.393 1.54359 304.469 1.56942 304.538C1.59526 304.609 1.63917 304.674 1.69601 304.732C1.73734 304.772 1.79159 304.81 1.85101 304.843C1.89751 304.868 1.95177 304.891 2.00602 304.906C5.74164 305.098 9.27575 305.883 12.4663 307.147C15.773 308.454 18.713 310.277 21.131 312.484C21.3687 312.687 21.596 312.884 21.8105 313.076L22.1592 313.453L22.4796 313.815C23.8798 315.309 25.0604 316.949 25.9724 318.7C26.8662 320.414 27.5069 322.236 27.8582 324.132C27.9693 324.696 28.052 325.257 28.1088 325.812C28.1631 326.368 28.1915 326.931 28.1941 327.5C28.1915 328.069 28.1631 328.634 28.1088 329.188C28.052 329.743 27.9693 330.304 27.8582 330.871C27.5069 332.766 26.8662 334.586 25.9724 336.3C25.0604 338.053 23.8798 339.691 22.4796 341.185L22.1592 341.547L21.8105 341.924C21.596 342.116 21.3687 342.315 21.131 342.516C18.713 344.723 15.773 346.546 12.4663 347.853C9.27575 349.117 5.74164 349.902 2.00602 350.094C1.95177 350.109 1.89751 350.132 1.85101 350.157C1.79159 350.19 1.73734 350.228 1.69601 350.27C1.63917 350.326 1.59525 350.393 1.56942 350.464C1.54359 350.533 1.53325 350.607 1.54359 350.682C1.55134 350.747 1.57459 350.81 1.60817 350.866C1.64175 350.927 1.69084 350.979 1.74509 351.025C1.79935 351.069 1.86651 351.107 1.93885 351.134C2.0086 351.161 2.0861 351.18 2.16619 351.184L2.65445 351.23L3.12722 351.28C6.44691 351.559 9.59609 352.308 12.4663 353.444C15.4191 354.613 18.08 356.191 20.3405 358.088C20.5911 358.287 20.8417 358.49 21.0897 358.699C21.3403 358.911 21.5805 359.12 21.8105 359.325C21.9603 359.461 22.0972 359.603 22.2212 359.75C22.3375 359.886 22.4434 360.028 22.5338 360.17C24.3293 362.097 25.7553 364.265 26.7241 366.602C27.4926 368.46 27.9733 370.426 28.1202 372.464C27.9733 374.459 27.4926 376.384 26.7241 378.205C25.7553 380.495 24.3293 382.618 22.5338 384.505C22.4434 384.645 22.3375 384.782 22.2212 384.917C22.0972 385.059 21.9603 385.198 21.8105 385.331C21.5805 385.532 21.3403 385.737 21.0897 385.946C20.8417 386.149 20.5911 386.35 20.3405 386.542C18.08 388.401 15.4191 389.948 12.4663 391.091C9.59609 392.204 6.44691 392.938 3.12722 393.212L2.65446 393.261L2.16619 393.304C2.0861 393.31 2.0086 393.327 1.93885 393.353C1.86651 393.38 1.79935 393.417 1.7451 393.462C1.69085 393.505 1.64176 393.556 1.60817 393.616C1.57459 393.671 1.55134 393.733 1.54359 393.796C1.53325 393.87 1.54359 393.944 1.56942 394.011C1.59526 394.081 1.63917 394.144 1.69601 394.202C1.73734 394.241 1.79159 394.278 1.85101 394.31C1.89751 394.335 1.95177 394.358 2.00602 394.372C5.74164 394.56 9.27575 395.329 12.4663 396.566C15.773 397.847 18.713 399.632 21.131 401.794C21.3687 401.992 21.596 402.185 21.8105 402.374L22.1592 402.742L22.4796 403.097C23.8798 404.56 25.0604 406.166 25.9724 407.882C26.8662 409.56 27.5069 411.344 27.8582 413.201C27.9693 413.754 28.052 414.303 28.1088 414.846C28.1631 415.391 28.1915 415.943 28.1941 416.5C28.1915 417.057 28.1631 417.611 28.1088 418.154C28.052 418.697 27.9693 419.246 27.8582 419.801C27.5069 421.658 26.8662 423.44 25.9724 425.118C25.0604 426.836 23.8798 428.44 22.4796 429.903L22.1592 430.258L21.8105 430.626C21.596 430.815 21.3687 431.01 21.131 431.206C18.713 433.368 15.773 435.153 12.4663 436.434C9.27575 437.671 5.74164 438.44 2.00602 438.628C1.95177 438.642 1.89751 438.665 1.85101 438.69C1.79159 438.722 1.73734 438.759 1.69601 438.8C1.63917 438.856 1.59525 438.921 1.56942 438.991C1.54359 439.058 1.53325 439.13 1.54359 439.204C1.55134 439.267 1.57459 439.329 1.60817 439.384C1.64175 439.444 1.69084 439.495 1.74509 439.54C1.79935 439.583 1.86651 439.62 1.93885 439.647C2.0086 439.673 2.0861 439.692 2.16619 439.696L2.65445 439.741L3.12722 439.79C6.44691 440.062 9.59609 440.796 12.4663 441.909C15.4191 443.054 18.08 444.599 20.3405 446.458C20.5911 446.652 20.8417 446.851 21.0897 447.056C21.3403 447.263 21.5805 447.468 21.8105 447.669C21.9603 447.802 22.0972 447.941 22.2212 448.085C22.3375 448.218 22.4434 448.357 22.5338 448.497C24.3293 450.384 25.7553 452.507 26.7241 454.795C27.6593 457.011 28.1683 459.381 28.1683 461.844V464H28.2942V466.315C28.2942 468.959 27.7534 471.505 26.7597 473.883C25.7303 476.343 24.2151 478.622 22.3073 480.649C22.2113 480.798 22.0987 480.946 21.9752 481.091C21.8434 481.243 21.6979 481.392 21.5387 481.535C21.2944 481.751 21.0391 481.971 20.7729 482.195C20.5094 482.413 20.2431 482.629 19.9768 482.836C17.575 484.831 14.7476 486.492 11.6101 487.72C8.56038 488.915 5.21422 489.702 1.6869 489.997L1.18456 490.05L0.665753 490.096C0.580658 490.103 0.49831 490.12 0.424195 490.149C0.347335 490.178 0.275968 490.217 0.218323 490.266C0.160678 490.312 0.108519 490.367 0.0728341 490.431C0.0371491 490.49 0.0124451 490.556 0.00421013 490.624C-0.00676987 490.704 0.00421075 490.783 0.0316607 490.855C0.0591107 490.93 0.105775 490.998 0.166165 491.06C0.210085 491.102 0.267729 491.141 0.330864 491.177C0.380274 491.203 0.437922 491.227 0.495567 491.243C4.46484 491.445 8.21999 492.27 11.6101 493.599C15.1237 494.974 18.2475 496.89 20.8168 499.212C21.0693 499.425 21.3109 499.632 21.5387 499.834L21.9093 500.23L22.2497 500.611C23.7375 502.182 24.9919 503.907 25.9609 505.748C26.9107 507.55 27.5915 509.467 27.9648 511.46C28.0828 512.054 28.1706 512.644 28.231 513.227C28.2887 513.812 28.3189 514.404 28.3216 515.002C28.3189 515.601 28.2887 516.195 28.231 516.778C28.1706 517.361 28.0828 517.951 27.9648 518.547C27.5915 520.54 26.9107 522.454 25.9609 524.256C24.9919 526.1 23.7375 527.823 22.2497 529.394L21.9093 529.774L21.5387 530.17C21.3109 530.373 21.0693 530.582 20.8168 530.793C18.2475 533.114 15.1237 535.03 11.6101 536.406C8.21999 537.734 4.46483 538.56 0.495565 538.762C0.43792 538.777 0.380271 538.802 0.330861 538.828C0.267726 538.863 0.210082 538.903 0.166162 538.947C0.105773 539.006 0.0591081 539.077 0.0316581 539.151C0.0042081 539.224 -0.00677253 539.301 0.00420747 539.38C0.0124425 539.448 0.0371464 539.514 0.0728314 539.574C0.108516 539.638 0.160675 539.693 0.21832 539.741C0.275965 539.787 0.347332 539.827 0.424192 539.855C0.498307 539.884 0.580655 539.904 0.66575 539.908L1.18456 539.957L1.68689 540.009C5.21422 540.302 8.56037 541.09 11.6101 542.284C14.7476 543.514 17.5749 545.173 19.9768 547.169C20.2431 547.378 20.5094 547.591 20.7729 547.811C21.0391 548.034 21.2944 548.253 21.5387 548.469C21.6979 548.612 21.8434 548.762 21.9752 548.916C22.0987 549.059 22.2113 549.208 22.3073 549.358C24.2151 551.384 25.7303 553.664 26.7597 556.121C27.7534 558.5 28.2942 561.045 28.2942 563.69V566.005H31.838V563.69C31.838 561.045 32.3787 558.5 33.3724 556.121C34.4018 553.664 35.9143 551.384 37.8248 549.358C37.9209 549.208 38.0307 549.061 38.1542 548.916C38.2887 548.762 38.4315 548.612 38.5934 548.469C38.835 548.253 39.093 548.034 39.3593 547.811C39.6228 547.591 39.889 547.378 40.1553 547.169C42.5544 545.173 45.3845 543.514 48.5221 542.284C51.569 541.09 54.9152 540.302 58.4452 540.009L58.9476 539.957L59.4664 539.908C59.5487 539.904 59.6311 539.884 59.7052 539.855C59.7821 539.827 59.8534 539.787 59.9138 539.741C59.9715 539.693 60.0209 539.638 60.0593 539.574C60.095 539.514 60.1197 539.448 60.1279 539.38C60.1362 539.301 60.1279 539.224 60.1005 539.151C60.0703 539.077 60.0236 539.006 59.966 538.947C59.9193 538.903 59.8644 538.863 59.8013 538.828C59.7519 538.802 59.6942 538.777 59.6366 538.762C55.6673 538.56 51.9121 537.734 48.5193 536.406C45.0085 535.03 41.8847 533.114 39.3153 530.793C39.0601 530.582 38.8212 530.375 38.5934 530.17L38.2228 529.774L37.8825 529.394C36.3919 527.823 35.1402 526.1 34.1685 524.256C33.2187 522.454 32.5379 520.54 32.1674 518.547C32.0493 517.951 31.9587 517.361 31.9011 516.778C31.8435 516.195 31.8105 515.601 31.8105 515.002C31.8105 514.404 31.8435 513.812 31.9011 513.227C31.9587 512.644 32.0493 512.054 32.1674 511.46C32.5379 509.467 33.2187 507.55 34.1685 505.748C35.1402 503.907 36.3919 502.182 37.8825 500.611L38.2228 500.23L38.5934 499.834C38.8212 499.632 39.0628 499.425 39.3153 499.212C41.8847 496.89 45.0085 494.974 48.5193 493.599C51.9122 492.27 55.6673 491.445 59.6366 491.243C59.6942 491.227 59.7519 491.203 59.8013 491.177C59.8644 491.141 59.9193 491.102 59.966 491.06C60.0236 490.998 60.0703 490.93 60.1005 490.855C60.1279 490.783 60.1362 490.704 60.1279 490.624C60.1197 490.556 60.095 490.49 60.0593 490.431C60.0209 490.367 59.9715 490.312 59.9138 490.266C59.8534 490.217 59.7821 490.178 59.7079 490.149C59.6311 490.12 59.5487 490.103 59.4664 490.096L58.9476 490.05L58.4452 489.997C54.9152 489.702 51.569 488.915 48.5221 487.72C45.3845 486.492 42.5544 484.831 40.1553 482.836C39.8891 482.629 39.6228 482.413 39.3593 482.195C39.093 481.971 38.835 481.751 38.5934 481.535C38.4315 481.392 38.2887 481.243 38.1542 481.091C38.0307 480.946 37.9209 480.796 37.8248 480.649C35.9143 478.622 34.4018 476.343 33.3724 473.883C32.3787 471.505 31.838 468.959 31.838 466.315V464H31.5034V461.844C31.5034 459.381 32.0124 457.011 32.9476 454.795C33.9164 452.507 35.3398 450.384 37.1379 448.497C37.2283 448.357 37.3316 448.22 37.4479 448.085C37.5745 447.941 37.7088 447.802 37.8612 447.669C38.0886 447.468 38.3314 447.263 38.582 447.056C38.83 446.851 39.0806 446.652 39.3312 446.458C41.5891 444.599 44.2526 443.054 47.2054 441.909C50.073 440.796 53.2222 440.062 56.5445 439.79L57.0172 439.741L57.5055 439.696C57.583 439.692 57.6605 439.673 57.7303 439.647C57.8026 439.62 57.8698 439.583 57.9266 439.54C57.9809 439.495 58.0274 439.444 58.0635 439.384C58.0971 439.329 58.1204 439.267 58.1281 439.204C58.1359 439.13 58.1281 439.058 58.1023 438.991C58.0739 438.921 58.0299 438.856 57.9757 438.8C57.9318 438.759 57.8801 438.722 57.8207 438.69C57.7742 438.665 57.7199 438.642 57.6657 438.628C53.9301 438.44 50.396 437.671 47.2029 436.434C43.8987 435.153 40.9587 433.368 38.5407 431.206C38.3004 431.01 38.0756 430.817 37.8612 430.626L37.5125 430.258L37.1921 429.903C35.7893 428.44 34.6113 426.836 33.6968 425.118C32.8029 423.44 32.1622 421.658 31.8135 419.801C31.7024 419.246 31.6171 418.697 31.5629 418.154C31.5086 417.611 31.4776 417.057 31.4776 416.5C31.4776 415.943 31.5086 415.391 31.5629 414.846C31.6171 414.303 31.7024 413.754 31.8135 413.201C32.1622 411.344 32.8029 409.56 33.6968 407.882C34.6113 406.166 35.7893 404.56 37.1921 403.097L37.5125 402.742L37.8612 402.374C38.0756 402.185 38.303 401.992 38.5407 401.794C40.9587 399.632 43.8987 397.847 47.2029 396.566C50.396 395.329 53.9301 394.56 57.6657 394.372C57.7199 394.358 57.7742 394.335 57.8207 394.31C57.8801 394.278 57.9318 394.241 57.9757 394.202C58.0299 394.144 58.0739 394.081 58.1023 394.011C58.1281 393.944 58.1359 393.87 58.1281 393.796C58.1204 393.733 58.0971 393.671 58.0635 393.616C58.0274 393.556 57.9809 393.505 57.9266 393.462C57.8698 393.417 57.8026 393.38 57.7328 393.353C57.6605 393.327 57.583 393.31 57.5055 393.304L57.0172 393.261L56.5445 393.212C53.2222 392.938 50.073 392.204 47.2054 391.091C44.2526 389.948 41.5891 388.401 39.3312 386.542C39.0806 386.35 38.83 386.149 38.582 385.946C38.3314 385.737 38.0886 385.532 37.8612 385.331C37.7088 385.198 37.5745 385.059 37.4479 384.917C37.3316 384.782 37.2283 384.643 37.1379 384.505C35.3398 382.618 33.9164 380.495 32.9476 378.205C32.1791 376.384 31.6984 374.459 31.5515 372.464C31.6984 370.426 32.1791 368.46 32.9476 366.602C33.9164 364.265 35.3398 362.097 37.1379 360.17C37.2283 360.028 37.3316 359.888 37.4479 359.75C37.5745 359.603 37.7088 359.461 37.8612 359.325C38.0886 359.12 38.3314 358.911 38.582 358.699C38.83 358.49 39.0806 358.287 39.3312 358.088C41.5891 356.191 44.2526 354.613 47.2054 353.444C50.073 352.308 53.2222 351.559 56.5445 351.28L57.0172 351.23L57.5055 351.184C57.583 351.18 57.6605 351.161 57.7303 351.134C57.8026 351.107 57.8698 351.069 57.9266 351.025C57.9809 350.979 58.0274 350.927 58.0635 350.866C58.0971 350.81 58.1204 350.747 58.1281 350.682C58.1359 350.607 58.1281 350.533 58.1023 350.464C58.0739 350.393 58.0299 350.326 57.9757 350.27C57.9318 350.228 57.8801 350.19 57.8207 350.157C57.7742 350.132 57.7199 350.109 57.6657 350.094C53.9301 349.902 50.396 349.117 47.2029 347.853C43.8987 346.546 40.9587 344.723 38.5407 342.516C38.3004 342.315 38.0756 342.118 37.8612 341.924L37.5125 341.547L37.1921 341.185C35.7893 339.691 34.6113 338.053 33.6968 336.3C32.8029 334.586 32.1622 332.766 31.8135 330.871C31.7024 330.304 31.6171 329.743 31.5629 329.188C31.5086 328.634 31.4776 328.069 31.4776 327.5C31.4776 326.931 31.5086 326.368 31.5629 325.812C31.6171 325.257 31.7024 324.696 31.8135 324.132C32.1622 322.236 32.8029 320.414 33.6968 318.7C34.6113 316.949 35.7893 315.309 37.1921 313.815L37.5125 313.453L37.8612 313.076C38.0756 312.884 38.303 312.687 38.5407 312.484C40.9587 310.277 43.8987 308.454 47.2029 307.147C50.396 305.883 53.9301 305.098 57.6657 304.906C57.7199 304.891 57.7742 304.868 57.8207 304.843C57.8801 304.81 57.9318 304.772 57.9757 304.732C58.0299 304.674 58.0739 304.609 58.1023 304.538C58.1281 304.469 58.1359 304.393 58.1281 304.318C58.1204 304.253 58.0971 304.19 58.0635 304.134C58.0274 304.073 57.9809 304.021 57.9266 303.977C57.8698 303.931 57.8026 303.893 57.7328 303.866C57.6605 303.839 57.583 303.822 57.5055 303.816L57.0172 303.772L56.5445 303.722C53.2222 303.441 50.073 302.692 47.2054 301.556C44.2526 300.389 41.5891 298.809 39.3312 296.912C39.0806 296.715 38.83 296.51 38.582 296.303C38.3314 296.089 38.0886 295.88 37.8612 295.675C37.7088 295.539 37.5745 295.397 37.4479 295.252C37.3316 295.114 37.2283 294.972 37.1379 294.832C35.3398 292.905 33.9164 290.737 32.9476 288.398C32.0124 286.137 31.5034 283.716 31.5034 281.201V279L31.5034 276.844C31.5034 274.381 32.0124 272.011 32.9476 269.795C33.9164 267.507 35.3398 265.384 37.1379 263.497C37.2283 263.357 37.3316 263.22 37.4479 263.085C37.5745 262.941 37.7088 262.802 37.8612 262.669C38.0886 262.468 38.3314 262.263 38.582 262.056C38.83 261.851 39.0806 261.652 39.3312 261.458C41.5891 259.599 44.2526 258.054 47.2054 256.909C50.073 255.796 53.2222 255.063 56.5445 254.79L57.0172 254.741L57.5055 254.696C57.583 254.692 57.6605 254.673 57.7303 254.647C57.8026 254.62 57.8698 254.583 57.9266 254.54C57.9809 254.495 58.0274 254.444 58.0635 254.384C58.0971 254.329 58.1204 254.267 58.1281 254.204C58.1359 254.13 58.1281 254.058 58.1023 253.991C58.0739 253.921 58.0299 253.856 57.9757 253.8C57.9318 253.759 57.8801 253.722 57.8207 253.69C57.7742 253.665 57.7199 253.642 57.6657 253.628C53.9301 253.44 50.396 252.671 47.2029 251.434C43.8987 250.153 40.9587 248.368 38.5407 246.206C38.3004 246.01 38.0756 245.817 37.8612 245.626L37.5125 245.258L37.1921 244.903C35.7893 243.44 34.6113 241.836 33.6968 240.118C32.8029 238.44 32.1622 236.658 31.8135 234.801C31.7024 234.246 31.6171 233.697 31.5629 233.154C31.5086 232.611 31.4776 232.057 31.4776 231.5C31.4776 230.943 31.5086 230.391 31.5629 229.846C31.6171 229.303 31.7024 228.754 31.8135 228.201C32.1622 226.344 32.8029 224.56 33.6968 222.882C34.6113 221.166 35.7893 219.56 37.1921 218.097L37.5125 217.742L37.8612 217.374C38.0756 217.185 38.303 216.992 38.5407 216.794C40.9587 214.632 43.8987 212.847 47.2029 211.566C50.396 210.329 53.9301 209.56 57.6657 209.372C57.7199 209.358 57.7742 209.335 57.8207 209.31C57.8801 209.278 57.9318 209.241 57.9757 209.202C58.0299 209.144 58.0739 209.081 58.1023 209.011C58.1281 208.944 58.1359 208.87 58.1281 208.796C58.1204 208.733 58.0971 208.671 58.0635 208.616C58.0274 208.556 57.9809 208.505 57.9266 208.462C57.8698 208.417 57.8026 208.38 57.7328 208.353C57.6605 208.327 57.583 208.31 57.5055 208.304L57.0172 208.261L56.5445 208.212C53.2222 207.938 50.073 207.204 47.2054 206.091C44.2526 204.948 41.5891 203.401 39.3312 201.542C39.0806 201.35 38.83 201.149 38.582 200.946C38.3314 200.737 38.0886 200.532 37.8612 200.331C37.7088 200.198 37.5745 200.059 37.4479 199.917C37.3316 199.782 37.2283 199.643 37.1379 199.505C35.3398 197.618 33.9164 195.495 32.9476 193.205C32.1814 191.39 31.7013 189.47 31.5528 187.482C31.7013 185.472 32.1814 183.532 32.9476 181.699C33.9164 179.386 35.3398 177.24 37.1379 175.333C37.2283 175.193 37.3316 175.054 37.4479 174.917C37.5745 174.772 37.7088 174.631 37.8612 174.497C38.0886 174.294 38.3314 174.087 38.582 173.878C38.83 173.671 39.0806 173.47 39.3312 173.273C41.5891 171.395 44.2526 169.834 47.2054 168.676C50.073 167.552 53.2222 166.811 56.5445 166.535L57.0172 166.485L57.5055 166.44C57.583 166.436 57.6605 166.417 57.7303 166.39C57.8026 166.363 57.8698 166.326 57.9266 166.283C57.9809 166.237 58.0274 166.185 58.0635 166.125C58.0971 166.069 58.1204 166.007 58.1281 165.943C58.1359 165.868 58.1281 165.796 58.1023 165.728C58.0739 165.657 58.0299 165.591 57.9757 165.535C57.9318 165.494 57.8801 165.456 57.8207 165.423C57.7742 165.398 57.7199 165.376 57.6657 165.361C53.9301 165.171 50.396 164.394 47.2029 163.143C43.8987 161.849 40.9587 160.046 38.5407 157.861C38.3004 157.662 38.0756 157.468 37.8612 157.275L37.5125 156.902L37.1921 156.544C35.7893 155.066 34.6113 153.444 33.6968 151.709C32.8029 150.013 32.1622 148.212 31.8135 146.336C31.7024 145.775 31.6171 145.22 31.5629 144.671C31.5086 144.122 31.4776 143.563 31.4776 143C31.4776 142.437 31.5086 141.88 31.5629 141.329C31.6171 140.78 31.7024 140.225 31.8135 139.666C32.1622 137.79 32.8029 135.987 33.6968 134.291C34.6113 132.558 35.7893 130.934 37.1921 129.456L37.5125 129.098L37.8612 128.725C38.0756 128.534 38.303 128.34 38.5407 128.139C40.9587 125.954 43.8987 124.151 47.2029 122.857C50.396 121.606 53.9301 120.829 57.6657 120.639C57.7199 120.624 57.7742 120.602 57.8207 120.577C57.8801 120.544 57.9318 120.506 57.9757 120.467C58.0299 120.409 58.0739 120.345 58.1023 120.274C58.1281 120.206 58.1359 120.132 58.1281 120.057C58.1204 119.993 58.0971 119.931 58.0635 119.875C58.0274 119.815 57.9809 119.763 57.9266 119.72C57.8698 119.674 57.8026 119.637 57.7328 119.61C57.6605 119.583 57.583 119.566 57.5055 119.56L57.0172 119.517L56.5445 119.467C53.2222 119.189 50.073 118.448 47.2054 117.324C44.2526 116.168 41.5891 114.605 39.3312 112.727C39.0806 112.532 38.83 112.329 38.582 112.124C38.3314 111.913 38.0886 111.706 37.8612 111.503C37.7088 111.369 37.5745 111.228 37.4479 111.085C37.3316 110.948 37.2283 110.807 37.1379 110.669C35.3398 108.762 33.9164 106.616 32.9476 104.301C32.0124 102.063 31.5034 99.6673 31.5034 97.1783L31.5034 95Z"
          fill="url(#paint0_linear_362_972)"/>
    <defs>
        <linearGradient id="paint0_linear_362_972" x1="177.5" y1="149.5" x2="29.8353" y2="464"
                        gradientUnits="userSpaceOnUse">
            <stop stop-color="#C569FF"/>
            <stop offset="1" stop-color="#F3DFFF"/>
        </linearGradient>
    </defs>
</svg>
